<?xml version="1.0" standalone="no"?>
<!DOCTYPE svg PUBLIC "-//W3C//DTD SVG 20010904//EN"
 "http://www.w3.org/TR/2001/REC-SVG-20010904/DTD/svg10.dtd">
<svg version="1.0" xmlns="http://www.w3.org/2000/svg"
 width="500.000000pt" height="500.000000pt" viewBox="0 0 500.000000 500.000000"
 preserveAspectRatio="xMidYMid meet">

<g transform="translate(0.000000,500.000000) scale(0.100000,-0.100000)"
fill="#000000" stroke="none">
<path d="M4085 4969 c-4 -6 0 -18 9 -27 15 -15 16 -15 16 5 0 25 -15 38 -25
22z"/>
<path d="M4180 4938 c-16 -22 -30 -44 -30 -49 0 -4 -12 -21 -26 -39 -25 -29
-25 -32 -10 -49 9 -10 16 -25 16 -34 0 -23 -42 -48 -76 -46 -33 3 -69 -8 -101
-28 -21 -14 -22 -16 -7 -45 13 -26 14 -35 3 -55 -7 -14 -19 -21 -27 -18 -7 3
-21 5 -31 5 -9 0 -31 13 -47 29 -17 16 -42 33 -56 36 -23 6 -27 3 -33 -24 -4
-17 -15 -36 -25 -41 -22 -12 -30 -13 -29 -2 4 23 -3 39 -16 39 -10 0 -12 -4
-5 -12 14 -17 1 -26 -21 -15 -9 6 -26 7 -36 3 -11 -4 -8 2 9 15 14 12 33 22
41 22 9 0 19 5 22 10 3 6 17 10 31 10 29 0 29 4 -1 55 -13 22 -28 50 -34 61
-7 16 -22 23 -57 27 -27 3 -50 10 -52 16 -2 6 -13 11 -25 11 -21 0 -21 -1 3
-20 21 -17 23 -21 10 -30 -22 -14 -50 -12 -50 4 0 9 -17 15 -47 19 -53 6 -74
-1 -49 -15 11 -6 14 -16 10 -35 -5 -18 -2 -30 10 -38 41 -31 -31 -95 -106 -95
-22 0 -29 -4 -25 -14 8 -20 -65 -31 -139 -22 -52 6 -54 5 -54 -18 0 -14 -6
-29 -14 -33 -7 -4 -15 -20 -18 -35 -5 -29 -3 -30 65 -11 9 2 17 0 17 -6 0 -6
18 -11 40 -11 31 0 38 3 34 15 -4 8 -1 15 5 15 6 0 10 -6 8 -12 -3 -16 50 -23
67 -9 9 7 16 7 24 -1 16 -16 28 -2 14 15 -16 19 -4 28 18 15 13 -9 26 -8 49 2
32 13 39 28 20 47 -16 16 -5 39 21 46 15 4 20 2 16 -8 -2 -7 2 -19 10 -26 10
-8 14 -22 10 -40 -4 -21 -1 -28 14 -32 11 -3 20 -1 20 4 0 5 15 3 33 -5 24
-10 39 -11 52 -4 13 8 16 7 11 -1 -15 -23 11 -10 34 19 25 29 50 39 50 19 0
-5 4 -8 9 -5 5 3 14 0 20 -8 7 -8 20 -13 29 -11 9 2 20 4 25 4 4 1 7 15 7 31
0 17 5 30 11 30 6 0 8 -7 5 -16 -10 -26 3 -54 25 -54 10 0 19 4 19 8 0 5 19
15 43 21 23 7 48 18 56 25 12 8 13 8 7 -1 -11 -19 34 -17 54 2 10 9 30 17 46
18 23 2 29 -2 29 -17 0 -16 -12 -22 -60 -33 -53 -12 -61 -12 -71 2 -10 13 -13
13 -24 1 -6 -8 -9 -24 -6 -34 6 -17 20 -20 111 -26 57 -4 135 -4 172 -1 81 8
91 2 99 -72 8 -62 -4 -72 -93 -80 -65 -5 -69 -4 -70 16 -1 14 4 21 16 21 23 0
30 7 24 29 -8 33 -127 59 -210 46 -42 -6 -45 -9 -30 -20 21 -15 22 -25 2 -25
-9 0 -18 7 -21 15 -4 8 -13 15 -21 15 -10 0 -13 -9 -11 -32 3 -30 6 -33 33
-31 29 3 29 2 6 -7 -17 -8 -21 -14 -14 -21 18 -18 85 10 78 32 -3 10 -2 20 3
23 12 7 35 -20 39 -47 2 -12 8 -24 13 -27 10 -6 2 -11 -73 -44 -21 -9 -41 -26
-46 -38 -5 -13 -12 -23 -17 -22 -19 2 -76 -52 -121 -115 -26 -36 -73 -99 -106
-139 -33 -40 -58 -75 -56 -76 2 -2 13 -6 25 -10 24 -7 53 17 34 29 -5 3 -10
14 -9 23 0 13 3 12 11 -5 14 -29 52 -32 43 -3 -5 14 7 33 47 73 29 29 61 65
71 80 10 15 26 27 37 27 10 0 22 5 25 10 3 6 19 10 35 10 32 0 70 26 70 48 0
7 14 21 30 30 17 9 33 25 36 35 4 14 9 16 20 6 8 -6 14 -20 14 -30 0 -10 5
-21 11 -25 7 -4 9 -21 6 -40 -3 -20 0 -48 8 -67 18 -40 54 -86 55 -69 0 7 -7
20 -15 28 -9 10 -13 24 -9 40 4 14 1 31 -6 39 -16 19 3 45 31 45 16 0 19 8 19
58 0 66 11 82 56 82 18 0 34 5 36 11 3 9 9 8 24 -1 17 -11 29 -8 80 16 32 15
77 45 98 67 l39 40 20 -24 19 -24 24 30 c31 39 32 70 1 34 -23 -27 -47 -29
-47 -3 0 26 -31 14 -70 -28 -42 -46 -62 -44 -62 6 0 22 -4 25 -24 20 -31 -8
-49 3 -33 22 10 12 8 17 -7 29 -16 12 -17 17 -6 32 6 10 16 28 21 39 6 12 27
39 49 61 32 32 40 47 46 93 8 59 28 100 49 100 16 0 61 49 53 57 -7 8 -92 -15
-143 -39 -28 -13 -43 -27 -45 -41 -3 -19 -9 -22 -40 -20 -37 2 -38 1 -44 -37
-4 -22 -10 -40 -14 -40 -10 0 -31 26 -29 36 4 22 -2 34 -17 34 -9 0 -23 8 -31
18 -13 16 -14 15 -8 -5 9 -31 -21 -73 -52 -73 -18 0 -24 5 -21 18 2 9 9 18 16
18 6 1 17 2 22 3 6 0 10 12 10 26 0 14 8 29 20 35 11 6 27 26 35 45 14 36 48
48 58 23 3 -10 10 -8 23 5 19 18 18 19 -3 34 -13 9 -23 26 -23 39 0 30 -14 38
-40 22 -19 -11 -24 -10 -40 10 -10 12 -21 22 -24 22 -3 0 -19 -19 -36 -42z
m70 -63 c0 -8 -7 -15 -15 -15 -8 0 -15 7 -15 15 0 8 7 15 15 15 8 0 15 -7 15
-15z m-196 -191 c20 -8 21 -34 1 -34 -8 0 -15 -4 -15 -10 0 -5 -11 -10 -25
-10 -31 0 -32 16 -2 41 26 22 22 20 41 13z m-409 -18 c-41 -17 -92 -30 -82
-19 12 12 68 31 92 32 15 0 12 -3 -10 -13z m825 -1 c0 -10 -10 -15 -26 -15
-22 0 -25 2 -14 15 7 8 19 15 26 15 8 0 14 -7 14 -15z m-140 -36 c0 -6 -12
-26 -26 -45 -27 -35 -58 -44 -67 -20 -7 17 19 56 37 56 8 0 19 7 26 15 13 15
30 12 30 -6z m-764 -29 c19 0 18 -16 -1 -24 -8 -3 -15 -15 -15 -27 0 -18 -2
-20 -15 -9 -9 7 -13 20 -10 27 2 8 1 23 -5 32 -12 24 -2 34 17 16 8 -8 21 -15
29 -15z m230 -12 c-11 -15 -16 -18 -16 -7 0 16 21 42 28 34 2 -2 -3 -14 -12
-27z m581 6 c3 -8 1 -20 -6 -27 -13 -13 -16 -10 -25 21 -6 16 -3 22 9 22 8 0
18 -7 22 -16z m-971 -26 c-9 -44 -22 -56 -42 -36 -19 19 -11 55 14 61 32 9 34
7 28 -25z m779 22 c-3 -5 -11 -10 -16 -10 -6 0 -7 5 -4 10 3 6 11 10 16 10 6
0 7 -4 4 -10z m40 -40 c6 -10 -44 -35 -53 -26 -2 3 -2 12 1 21 7 17 42 21 52
5z m-88 -256 c-3 -3 -12 -4 -19 -1 -8 3 -5 6 6 6 11 1 17 -2 13 -5z m65 -85
l-9 -24 -7 23 c-8 26 2 48 15 35 6 -6 6 -19 1 -34z m-182 -7 c0 -13 -35 -39
-47 -35 -20 7 -2 39 23 41 13 1 24 -2 24 -6z"/>
<path d="M3922 4734 c9 -9 21 -13 27 -10 20 13 11 26 -16 26 -25 0 -26 -1 -11
-16z"/>
<path d="M3350 4680 c0 -11 6 -20 13 -20 19 0 27 10 20 26 -8 21 -33 17 -33
-6z"/>
<path d="M4772 4640 c-24 -38 -27 -56 -12 -65 11 -7 42 62 37 85 -2 10 -10 4
-25 -20z"/>
<path d="M1162 4613 l-21 -30 25 5 c30 5 34 11 25 36 -7 17 -9 16 -29 -11z"/>
<path d="M3125 4630 c-3 -5 -1 -10 4 -10 6 0 11 5 11 10 0 6 -2 10 -4 10 -3 0
-8 -4 -11 -10z"/>
<path d="M4600 4610 c0 -6 7 -13 15 -16 8 -4 15 -14 15 -24 0 -23 20 -37 29
-21 4 7 21 15 36 19 46 13 44 34 -2 26 -29 -4 -42 -2 -52 10 -15 18 -41 22
-41 6z"/>
<path d="M1285 4600 c-3 -5 -1 -10 4 -10 6 0 11 5 11 10 0 6 -2 10 -4 10 -3 0
-8 -4 -11 -10z"/>
<path d="M1693 4594 c-3 -8 4 -25 16 -38 12 -12 18 -25 15 -29 -8 -7 41 -20
57 -15 6 2 -5 15 -25 28 -20 14 -36 29 -36 34 0 5 10 1 23 -10 29 -26 75 -49
83 -42 3 4 -4 9 -15 13 -12 3 -26 15 -31 26 -6 10 -17 19 -24 19 -8 0 -16 7
-20 15 -7 20 -35 19 -43 -1z"/>
<path d="M2175 4600 c3 -5 10 -10 16 -10 5 0 9 5 9 10 0 6 -7 10 -16 10 -8 0
-12 -4 -9 -10z"/>
<path d="M766 4569 c-32 -22 -54 -30 -72 -26 -21 4 -30 -2 -49 -32 -13 -20
-27 -48 -30 -63 -4 -14 -15 -34 -26 -44 -27 -24 -24 -31 21 -54 61 -31 70 -28
59 22 -6 23 -17 47 -26 53 -12 9 -13 16 -5 31 6 10 12 16 13 12 1 -5 3 -12 4
-18 1 -5 3 -13 4 -17 0 -4 7 2 15 12 13 19 26 20 192 17 98 -2 175 0 171 4 -4
4 12 20 35 36 24 15 36 28 28 28 -8 -1 -24 -7 -34 -15 -25 -19 -51 -19 -81 1
-13 8 -32 14 -42 13 -10 -1 -27 2 -37 6 -13 6 -21 4 -24 -3 -2 -7 -12 -12 -22
-12 -13 0 -17 -5 -13 -20 3 -12 0 -20 -7 -20 -6 0 -14 9 -17 20 -6 22 -23 26
-41 8 -6 -6 -13 -10 -16 -7 -7 8 -18 54 -11 47 4 -4 22 0 39 9 29 15 30 15 17
0 -12 -15 -11 -17 6 -17 11 0 22 3 26 6 7 7 -13 54 -23 54 -4 0 -28 -14 -54
-31z m-36 -63 c0 -2 -8 -10 -17 -17 -16 -13 -17 -12 -4 4 13 16 21 21 21 13z"/>
<path d="M870 4574 c0 -8 5 -12 10 -9 6 4 8 11 5 16 -9 14 -15 11 -15 -7z"/>
<path d="M1171 4566 c-7 -9 -11 -22 -8 -30 4 -9 -4 -16 -23 -19 -16 -4 -38
-17 -50 -29 l-21 -23 43 -3 c25 -2 44 1 46 8 3 8 11 7 25 -3 16 -10 37 -12 75
-7 63 8 86 25 60 44 -22 16 -22 20 -4 39 13 13 11 15 -12 15 -15 0 -33 -5 -39
-10 -9 -7 -13 -7 -13 1 0 6 -13 11 -29 11 -16 0 -31 5 -33 11 -2 7 -9 5 -17
-5z"/>
<path d="M2092 4539 c-30 -34 -31 -37 -10 -32 13 3 20 3 17 -1 -4 -4 -28 -9
-53 -12 -36 -4 -52 -1 -75 15 -16 12 -31 21 -33 21 -1 0 -3 -15 -2 -32 1 -28
5 -33 28 -36 14 -2 40 4 57 12 27 13 30 13 25 1 -4 -12 4 -15 39 -15 40 0 44
2 50 30 6 26 9 28 25 18 11 -7 17 -14 15 -17 -3 -2 2 -16 11 -30 12 -17 13
-26 6 -29 -7 -2 -9 -16 -6 -35 10 -59 12 -61 32 -45 29 26 70 30 102 11 29
-17 30 -16 50 5 20 21 32 26 58 23 23 -3 12 17 -13 23 -14 4 -25 11 -25 16 0
13 7 12 55 -4 29 -10 41 -21 46 -41 6 -22 5 -24 -7 -14 -11 9 -14 8 -14 -8 0
-20 18 -43 33 -43 5 0 7 6 4 13 -3 7 -2 32 3 55 6 33 4 42 -7 42 -7 0 -16 7
-19 15 -4 8 -11 15 -17 15 -6 0 -18 7 -27 15 -9 8 -39 17 -67 19 -27 2 -61 11
-74 19 -23 16 -26 15 -41 -2 -22 -25 -51 -17 -84 23 -39 46 -46 46 -82 5z
m125 -55 c-3 -3 -12 -4 -19 -1 -8 3 -5 6 6 6 11 1 17 -2 13 -5z m128 -32 c0
-18 -20 -15 -23 4 -3 10 1 15 10 12 7 -3 13 -10 13 -16z m-87 -33 c-7 -5 -20
-8 -28 -8 -10 0 -11 2 -2 6 6 2 10 8 7 13 -3 4 4 6 16 3 16 -4 17 -8 7 -14z"/>
<path d="M1593 4556 c-13 -7 -34 -25 -47 -39 -14 -15 -35 -27 -48 -27 -19 0
-20 -2 -8 -10 8 -5 38 -10 67 -10 46 0 51 2 46 20 -3 11 -10 20 -17 21 -6 0
-2 4 9 9 29 13 38 12 32 -4 -4 -9 0 -12 13 -9 27 7 33 33 13 49 -21 16 -31 16
-60 0z"/>
<path d="M1684 4547 c3 -10 6 -25 6 -33 0 -8 4 -14 10 -14 14 0 7 37 -10 53
-10 10 -12 9 -6 -6z"/>
<path d="M1879 4533 c-1 -4 -1 -11 -1 -14 2 -10 -58 -22 -100 -21 -29 1 -36
-2 -31 -13 3 -8 9 -13 14 -10 4 3 17 0 29 -7 17 -11 25 -10 51 5 33 18 97 25
69 7 -10 -7 -11 -10 -2 -10 18 0 28 30 13 40 -7 4 -12 11 -11 16 0 5 -6 10
-14 12 -9 2 -17 0 -17 -5z"/>
<path d="M3919 4503 c-13 -16 -12 -17 4 -4 16 13 21 21 13 21 -2 0 -10 -8 -17
-17z"/>
<path d="M1340 4500 c0 -5 9 -10 21 -10 11 0 17 5 14 10 -3 6 -13 10 -21 10
-8 0 -14 -4 -14 -10z"/>
<path d="M3470 4491 c0 -13 26 -32 33 -24 8 7 -11 33 -24 33 -5 0 -9 -4 -9 -9z"/>
<path d="M1638 4483 c7 -3 16 -2 19 1 4 3 -2 6 -13 5 -11 0 -14 -3 -6 -6z"/>
<path d="M4465 4471 c-3 -5 -1 -12 5 -16 12 -7 30 2 30 16 0 12 -27 12 -35 0z"/>
<path d="M3918 4463 c7 -3 16 -2 19 1 4 3 -2 6 -13 5 -11 0 -14 -3 -6 -6z"/>
<path d="M790 4417 c0 -28 155 -45 202 -22 22 11 28 11 32 -1 3 -8 -1 -14 -9
-14 -8 0 -15 -4 -15 -8 0 -5 18 -8 41 -8 22 1 45 -5 51 -11 13 -16 55 -17 60
-1 3 7 18 13 34 14 16 1 32 3 37 3 10 1 9 29 -2 35 -5 3 -23 1 -40 -5 -24 -8
-35 -8 -46 1 -10 9 -61 14 -147 16 -72 2 -146 7 -165 10 -25 5 -33 3 -33 -9z"/>
<path d="M3213 4391 c7 -24 18 -42 29 -44 22 -6 24 16 3 33 -8 7 -15 21 -15
31 0 11 -6 19 -14 19 -11 0 -11 -8 -3 -39z"/>
<path d="M1300 4410 c10 -6 3 -8 -22 -3 -35 5 -38 4 -38 -19 0 -24 2 -25 63
-23 35 2 75 8 88 16 23 12 22 13 -31 25 -67 16 -80 17 -60 4z"/>
<path d="M3060 4410 c0 -8 5 -22 10 -30 9 -13 10 -13 10 0 0 8 -5 22 -10 30
-9 13 -10 13 -10 0z"/>
<path d="M3255 4411 c-3 -6 4 -25 15 -43 14 -23 28 -33 45 -33 15 -1 21 3 16
8 -5 5 -7 15 -5 22 5 11 -30 29 -50 26 -5 -1 -6 5 -3 14 7 16 -8 21 -18 6z"/>
<path d="M3308 4413 c7 -3 16 -2 19 1 4 3 -2 6 -13 5 -11 0 -14 -3 -6 -6z"/>
<path d="M1445 4390 c-3 -5 9 -23 26 -40 19 -18 26 -30 18 -30 -8 -1 -2 -11
15 -26 20 -18 32 -22 39 -15 6 6 22 11 37 11 24 0 23 -1 -9 -17 l-34 -17 27
-7 c15 -4 34 -5 42 -2 8 3 22 2 32 -2 21 -10 73 -6 88 6 6 5 14 6 17 2 4 -3 7
-1 7 6 0 6 -8 14 -17 18 -10 3 -26 15 -37 26 -10 10 -21 15 -25 10 -3 -4 -19
-14 -35 -21 -24 -11 -28 -11 -23 2 4 11 1 13 -10 9 -12 -5 -15 -2 -11 9 9 22
-5 39 -22 27 -12 -7 -13 -11 -2 -18 11 -6 10 -9 -5 -13 -27 -7 -41 1 -36 21 6
22 -32 52 -55 44 -11 -5 -14 -2 -9 10 7 18 -8 24 -18 7z"/>
<path d="M3716 4393 c-14 -14 -5 -32 11 -26 17 7 17 5 0 -21 l-19 -28 24 7
c12 4 34 18 48 32 24 24 24 25 3 14 -13 -7 -23 -8 -23 -4 0 12 -37 33 -44 26z"/>
<path d="M3740 4396 c0 -2 7 -6 15 -10 8 -3 15 -1 15 4 0 6 -7 10 -15 10 -8 0
-15 -2 -15 -4z"/>
<path d="M1883 4384 c8 -8 -18 -34 -33 -34 -6 0 -9 4 -5 9 3 5 1 12 -5 16 -12
8 -13 -15 -1 -34 5 -7 14 -11 19 -7 14 9 142 -4 142 -14 0 -4 -15 -11 -32 -14
-43 -8 -98 -42 -98 -60 0 -19 23 -33 28 -18 7 23 61 42 119 42 32 1 72 7 88
14 l30 13 -48 5 c-64 7 -80 23 -41 40 16 7 30 19 32 26 3 17 -17 15 -24 -3 -7
-18 -18 -19 -36 -2 -17 17 -48 29 -48 18 0 -11 -49 -11 -56 0 -3 5 -12 9 -21
9 -9 0 -14 -3 -10 -6z"/>
<path d="M1380 4348 c-19 -18 -34 -36 -32 -41 1 -4 -6 -3 -16 2 -14 7 -24 6
-37 -3 -18 -13 -18 -14 1 -23 28 -13 100 -9 119 7 15 13 15 15 -7 23 -20 9
-21 11 -5 14 10 3 24 0 31 -6 9 -8 12 -6 11 7 -3 23 -16 52 -24 52 -3 0 -22
-15 -41 -32z"/>
<path d="M808 4363 c7 -3 16 -2 19 1 4 3 -2 6 -13 5 -11 0 -14 -3 -6 -6z"/>
<path d="M918 4363 c6 -2 18 -2 25 0 6 3 1 5 -13 5 -14 0 -19 -2 -12 -5z"/>
<path d="M1173 4353 c-15 -5 -17 -23 -4 -23 5 0 11 7 15 15 3 8 4 15 3 14 -1
0 -8 -3 -14 -6z"/>
<path d="M1615 4349 c-4 -6 -5 -13 -2 -16 7 -7 27 6 27 18 0 12 -17 12 -25 -2z"/>
<path d="M1661 4344 c0 -11 3 -14 6 -6 3 7 2 16 -1 19 -3 4 -6 -2 -5 -13z"/>
<path d="M1206 4335 c-3 -8 -15 -15 -26 -15 -11 0 -20 -4 -20 -10 0 -5 5 -10
12 -10 7 0 -4 -16 -23 -36 -29 -31 -31 -35 -11 -29 12 3 22 2 22 -4 0 -14 36
-24 60 -16 16 5 18 10 10 26 -15 28 1 51 54 79 25 13 46 25 46 27 0 1 -27 3
-59 3 -43 0 -60 -4 -65 -15z"/>
<path d="M3795 4330 c-3 -5 -3 -10 2 -10 4 0 0 -5 -9 -11 -10 -5 -18 -17 -18
-24 0 -8 -4 -15 -10 -15 -16 0 -12 -27 7 -45 15 -16 17 -16 26 2 16 29 30 33
50 15 16 -14 19 -14 27 -2 14 22 12 40 -5 40 -8 0 -15 9 -15 20 0 10 -9 24
-19 30 -24 12 -28 13 -36 0z"/>
<path d="M1077 4313 c9 -23 28 -43 42 -43 16 0 13 14 -7 31 -33 28 -42 31 -35
12z"/>
<path d="M1875 4320 c-3 -5 -2 -10 4 -10 5 0 13 5 16 10 3 6 2 10 -4 10 -5 0
-13 -4 -16 -10z"/>
<path d="M1820 4305 c-21 -12 -23 -15 -8 -20 27 -10 46 -2 39 17 -5 14 -9 15
-31 3z"/>
<path d="M1738 4303 c7 -3 16 -2 19 1 4 3 -2 6 -13 5 -11 0 -14 -3 -6 -6z"/>
<path d="M1040 4283 c0 -13 22 -33 35 -33 7 0 12 7 12 15 0 8 -4 15 -8 15 -4
0 -14 3 -23 6 -9 3 -16 2 -16 -3z"/>
<path d="M1257 4283 c-4 -3 -7 -14 -7 -24 0 -30 108 -41 118 -11 2 8 -7 12
-25 12 -16 0 -38 7 -49 15 -22 16 -28 18 -37 8z"/>
<path d="M1463 4283 c-19 -7 15 -53 38 -53 25 0 24 17 -1 30 -11 6 -18 15 -15
21 7 10 -2 11 -22 2z"/>
<path d="M3347 4244 c-4 -4 -7 -15 -7 -24 0 -9 -11 -27 -25 -40 -17 -16 -24
-32 -22 -49 4 -29 24 -40 33 -17 3 8 12 12 20 9 8 -3 14 0 14 7 0 7 8 19 18
27 13 11 14 16 4 20 -10 4 -10 8 -1 20 10 11 8 18 -7 34 -11 11 -23 16 -27 13z
m3 -84 c0 -5 -4 -10 -9 -10 -6 0 -13 5 -16 10 -3 6 1 10 9 10 9 0 16 -4 16
-10z"/>
<path d="M1726 4228 c-10 -6 -36 -8 -58 -5 -35 5 -41 2 -51 -20 -12 -26 1 -43
34 -43 9 0 22 -7 29 -15 22 -26 37 -16 54 37 9 28 15 52 14 54 -2 1 -12 -2
-22 -8z"/>
<path d="M1490 4211 c-19 -5 -25 -14 -26 -39 -1 -18 2 -35 7 -38 5 -3 7 -9 4
-14 -8 -13 35 -100 49 -100 8 0 17 -7 20 -15 4 -13 10 -14 26 -5 15 8 19 17
14 37 -5 19 -3 24 7 21 8 -3 14 -17 13 -31 -1 -23 3 -27 25 -27 15 0 32 -5 39
-12 14 -14 27 13 18 38 -5 13 -9 14 -20 5 -11 -9 -16 -9 -21 0 -4 6 -2 15 5
19 11 7 10 13 -4 34 -17 26 -59 36 -71 16 -4 -6 -11 -8 -16 -5 -5 4 -12 -9
-16 -27 l-7 -33 -12 30 c-7 17 -13 45 -14 64 0 33 1 33 19 17 17 -15 19 -15
32 1 8 9 9 14 2 10 -7 -5 -16 6 -23 28 -6 19 -15 35 -18 34 -4 -1 -18 -4 -32
-8z"/>
<path d="M3590 4205 c0 -9 6 -12 15 -9 8 4 12 10 9 15 -8 14 -24 10 -24 -6z"/>
<path d="M3815 4209 c-4 -6 -5 -13 -2 -16 7 -7 27 6 27 18 0 12 -17 12 -25 -2z"/>
<path d="M1840 4199 c0 -5 -4 -7 -10 -4 -5 3 -10 1 -10 -4 0 -16 16 -13 30 4
9 10 9 15 1 15 -6 0 -11 -5 -11 -11z"/>
<path d="M1170 4180 c0 -18 3 -19 20 -10 22 12 18 30 -6 30 -8 0 -14 -9 -14
-20z"/>
<path d="M1244 4192 c-12 -2 -24 -12 -27 -22 -4 -17 1 -18 47 -16 29 2 62 8
73 14 11 6 24 8 28 4 5 -4 5 -1 1 6 -4 6 -20 12 -36 12 -15 0 -30 -6 -33 -12
-4 -10 -8 -9 -18 3 -8 8 -24 13 -35 11z"/>
<path d="M1560 4191 c0 -5 5 -13 10 -16 6 -3 10 -2 10 4 0 5 -4 13 -10 16 -5
3 -10 2 -10 -4z"/>
<path d="M1390 4166 c0 -8 9 -21 21 -29 13 -9 16 -17 10 -22 -6 -3 -11 -19
-11 -36 0 -23 -4 -29 -21 -29 -11 0 -18 -4 -15 -9 3 -4 -11 -8 -32 -7 -37 1
-72 26 -72 53 0 7 -9 13 -21 13 -16 0 -19 -4 -13 -22 9 -31 24 -48 40 -48 8 0
14 -5 14 -10 0 -7 7 -7 21 0 19 11 20 10 9 -10 -19 -36 3 -49 40 -22 34 26 48
29 29 6 -8 -10 -9 -18 -3 -22 5 -4 16 -27 23 -52 7 -25 16 -52 21 -60 4 -9 1
-19 -8 -26 -13 -9 -13 -14 3 -37 9 -15 21 -27 26 -27 5 0 9 -9 9 -21 0 -11 5
-17 10 -14 6 3 10 0 10 -7 1 -21 40 -63 48 -52 10 16 82 5 82 -12 0 -8 7 -14
16 -14 8 0 12 -5 9 -11 -5 -7 -13 -5 -24 5 -24 22 -40 20 -50 -6 -11 -28 14
-63 28 -40 11 17 12 18 37 4 12 -6 24 -25 28 -42 5 -27 8 -30 25 -20 28 15 53
3 41 -20 -6 -12 -5 -23 5 -36 8 -11 15 -34 15 -53 0 -28 2 -31 14 -22 12 10
14 7 11 -18 -5 -38 12 -41 18 -3 4 26 4 26 6 -4 0 -20 -5 -34 -14 -38 -17 -6
-21 -36 -5 -36 6 0 10 4 10 10 0 5 7 7 15 4 8 -4 21 -1 28 4 8 7 18 7 27 2 12
-7 10 -13 -9 -34 -22 -24 -23 -28 -10 -52 7 -15 19 -28 25 -31 6 -2 8 -17 6
-33 -2 -17 1 -37 8 -45 11 -14 15 -14 32 2 20 18 20 17 13 -30 -5 -32 -4 -47
4 -47 6 0 11 -9 11 -21 0 -12 8 -23 20 -26 27 -7 25 -23 -2 -24 -17 -1 -19 -2
-5 -6 9 -2 17 -8 17 -12 0 -4 17 -15 39 -24 28 -13 45 -15 63 -8 21 8 24 14
20 45 -2 19 -7 35 -11 34 -19 -2 -27 4 -27 21 0 34 43 -9 58 -57 9 -32 19 -44
38 -49 14 -3 35 -12 48 -19 20 -13 22 -13 22 3 1 13 6 9 18 -12 l17 -30 5 40
c3 27 -1 51 -12 73 -12 24 -14 41 -8 57 9 25 -11 90 -41 136 l-17 24 -13 -27
c-6 -16 -16 -28 -20 -28 -4 0 -15 -3 -23 -6 -13 -5 -16 1 -16 27 0 77 -1 89
-9 94 -5 3 -7 15 -3 27 3 14 2 19 -6 14 -7 -4 -12 -13 -12 -19 0 -7 -12 -13
-26 -14 -24 -1 -26 2 -21 30 6 44 -6 64 -47 71 -37 7 -50 18 -61 56 -4 14 -21
41 -36 61 -16 20 -29 43 -29 51 0 8 -5 19 -12 26 -9 9 -16 8 -30 -4 -16 -16
-17 -15 -9 14 9 30 6 42 -11 42 -5 0 -6 -5 -2 -12 4 -6 3 -8 -4 -5 -5 4 -8 16
-5 26 3 14 -3 21 -24 29 -25 9 -26 10 -5 11 26 1 38 23 27 49 -5 11 -9 13 -12
5 -7 -18 -23 -16 -23 2 0 8 -4 15 -10 15 -5 0 -10 -4 -10 -10 0 -5 -11 -10
-25 -10 -14 0 -28 -6 -31 -14 -12 -30 -32 -22 -72 29 -36 45 -39 55 -27 65 21
17 19 28 -7 33 l-23 4 23 2 c24 1 29 20 10 39 -8 8 -15 9 -25 1 -21 -18 -43
-2 -43 30 0 32 16 51 22 26 2 -10 7 -12 18 -5 8 5 12 12 8 15 -5 5 -20 8 -82
14 -5 1 -3 7 3 15 7 8 8 15 2 18 -5 1 -11 45 -13 96 l-3 92 -32 0 c-22 0 -33
-5 -33 -14z m355 -586 c-3 -5 -12 -10 -18 -10 -7 0 -6 4 3 10 19 12 23 12 15
0z m44 -154 c-9 -8 -10 -7 -5 7 3 10 7 24 7 30 1 7 3 4 6 -7 3 -10 -1 -23 -8
-30z m127 -151 c4 -9 18 -22 32 -29 16 -8 21 -16 14 -20 -10 -6 -72 45 -72 59
0 12 21 3 26 -10z m75 -95 c-13 -11 -28 -20 -35 -20 -6 0 0 9 14 20 33 26 52
25 21 0z m161 -102 c-7 -7 -12 -8 -12 -2 0 14 12 26 19 19 2 -3 -1 -11 -7 -17z
m-127 -58 c3 -5 2 -10 -4 -10 -5 0 -13 5 -16 10 -3 6 -2 10 4 10 5 0 13 -4 16
-10z"/>
<path d="M1790 4141 c0 -32 16 -64 45 -93 29 -29 63 -35 96 -17 22 11 53 -5
46 -25 -2 -6 7 -19 21 -30 17 -13 20 -21 12 -26 -18 -11 -3 -29 19 -23 27 7
34 43 13 66 -9 11 -16 28 -14 38 3 20 -34 89 -47 89 -5 0 -20 -9 -35 -21 -19
-15 -34 -19 -52 -15 -17 5 -23 3 -19 -4 3 -5 0 -10 -9 -10 -8 0 -24 20 -36 45
-23 47 -40 58 -40 26z"/>
<path d="M3385 4141 c-3 -6 -1 -11 5 -11 6 0 8 -4 5 -10 -3 -5 -2 -10 3 -10
13 0 10 -53 -3 -62 -6 -5 -6 -11 1 -18 16 -16 26 1 27 44 1 35 -27 84 -38 67z"/>
<path d="M1337 4133 c-4 -3 -7 -15 -7 -25 0 -13 7 -18 25 -18 29 0 36 34 9 44
-19 7 -19 7 -27 -1z"/>
<path d="M3597 4126 c-3 -8 0 -17 8 -19 7 -3 15 3 18 14 6 22 -18 27 -26 5z"/>
<path d="M1266 4119 c3 -5 14 -9 25 -9 10 0 19 4 19 9 0 5 -11 9 -25 9 -13 0
-22 -4 -19 -9z"/>
<path d="M1658 4124 c-9 -8 6 -57 18 -61 6 -2 17 8 24 22 12 23 12 28 0 35
-17 11 -34 13 -42 4z"/>
<path d="M3750 4109 c0 -5 -5 -7 -10 -4 -15 9 -50 -4 -50 -19 0 -8 -7 -19 -15
-26 -18 -15 -19 -7 -3 20 15 24 5 35 -19 20 -16 -10 -16 -11 0 -6 9 3 17 1 17
-4 0 -5 -9 -12 -20 -15 -11 -3 -20 -15 -20 -26 0 -12 -7 -19 -20 -19 -13 0
-20 7 -20 18 0 25 -41 62 -48 43 -3 -10 -6 -10 -12 -1 -4 7 -12 10 -18 6 -15
-9 36 -58 51 -50 8 5 8 3 0 -7 -7 -7 -13 -21 -13 -30 0 -9 -7 -22 -15 -29 -8
-7 -15 -22 -15 -33 0 -11 3 -17 7 -14 3 4 14 0 24 -9 18 -16 26 -15 64 8 27
17 75 69 75 81 0 6 3 7 6 4 4 -3 14 4 24 16 28 35 51 87 40 87 -5 0 -10 -5
-10 -11z"/>
<path d="M1083 4089 c-21 -21 -16 -41 7 -34 14 5 20 2 20 -9 0 -9 -7 -16 -15
-16 -19 0 -21 -63 -2 -79 19 -15 29 -3 16 21 -13 25 -4 37 24 31 18 -5 20 -3
10 8 -7 7 -13 21 -13 30 0 9 -8 27 -17 38 -15 18 -20 20 -30 10z"/>
<path d="M1280 4085 c0 -8 7 -15 15 -15 9 0 12 6 9 15 -4 8 -10 15 -15 15 -5
0 -9 -7 -9 -15z"/>
<path d="M3283 4026 c-30 -28 -29 -31 7 -34 18 -1 30 3 30 10 0 6 2 9 5 6 3
-3 2 -24 -4 -47 -5 -23 -5 -38 0 -35 5 3 9 0 9 -5 0 -6 -11 -11 -25 -11 -19 0
-25 -5 -25 -22 0 -12 -7 -30 -17 -40 -21 -23 -16 -27 24 -16 23 6 40 21 58 52
30 51 30 56 8 56 -15 0 -13 4 7 20 17 13 21 22 14 27 -7 5 -14 17 -16 28 -2
11 -10 19 -17 17 -7 -1 -18 1 -25 6 -7 6 -19 2 -33 -12z"/>
<path d="M3977 4009 c-11 -42 52 -96 100 -84 21 5 24 10 18 33 -9 35 -9 36
-34 21 -23 -15 -33 -9 -35 23 -1 32 -41 38 -49 7z"/>
<path d="M1851 3971 c-12 -7 -9 -17 13 -55 29 -50 33 -52 61 -33 23 18 12 37
-18 31 l-22 -5 22 10 c16 7 21 15 16 28 -12 32 -43 42 -72 24z"/>
<path d="M1560 3950 c0 -5 6 -10 14 -10 8 0 18 5 21 10 3 6 -3 10 -14 10 -12
0 -21 -4 -21 -10z"/>
<path d="M1680 3945 c0 -8 7 -15 15 -15 8 0 15 -4 15 -10 0 -5 7 -10 15 -10
24 0 17 26 -10 38 -33 15 -35 15 -35 -3z"/>
<path d="M1962 3935 c-6 -14 -10 -25 -7 -25 7 0 35 32 35 41 0 18 -17 9 -28
-16z"/>
<path d="M1142 3923 c-19 -22 -25 -24 -33 -12 -6 10 -9 7 -9 -13 0 -15 5 -30
10 -33 6 -3 10 -16 10 -29 0 -36 23 -77 40 -70 8 3 41 8 72 10 52 4 59 2 74
-21 14 -21 14 -32 4 -75 -11 -44 -10 -53 4 -69 9 -10 16 -22 16 -28 0 -14 28
-25 35 -13 3 5 1 11 -5 15 -6 4 -5 12 5 21 19 19 20 50 2 57 -9 3 -12 16 -10
34 3 21 -7 43 -37 86 -23 31 -46 55 -51 52 -4 -3 -11 6 -15 20 -3 14 -13 25
-21 25 -18 0 -53 37 -53 57 0 20 -12 16 -38 -14z"/>
<path d="M3460 3890 c0 -5 7 -10 16 -10 8 0 12 5 9 10 -3 6 -10 10 -16 10 -5
0 -9 -4 -9 -10z"/>
<path d="M1960 3876 c0 -2 7 -9 15 -16 9 -7 15 -8 15 -2 0 5 -7 12 -15 16 -8
3 -15 4 -15 2z"/>
<path d="M3450 3861 c0 -6 5 -13 10 -16 6 -3 10 1 10 9 0 9 -4 16 -10 16 -5 0
-10 -4 -10 -9z"/>
<path d="M1954 3839 c-3 -6 -1 -16 5 -22 6 -6 11 -24 11 -39 0 -15 5 -28 10
-28 17 0 12 87 -5 93 -8 4 -17 1 -21 -4z"/>
<path d="M1647 3823 c-13 -13 -7 -21 13 -16 11 3 17 9 14 14 -6 11 -18 12 -27
2z"/>
<path d="M3586 3765 c-60 -86 -71 -106 -54 -103 15 3 21 -59 7 -68 -5 -3 -9
-10 -9 -15 0 -6 6 -7 12 -2 7 4 22 7 33 8 16 0 19 6 17 28 -1 15 2 27 8 27 5
0 10 -7 10 -15 0 -8 6 -15 13 -15 6 0 4 -5 -6 -11 -9 -6 -15 -15 -12 -20 4 -5
10 -7 15 -4 5 3 11 1 15 -5 8 -13 42 -13 50 1 4 5 0 18 -9 28 -20 22 -21 35 0
27 19 -7 54 10 54 27 0 24 -22 37 -42 26 -17 -9 -19 -8 -13 10 5 17 2 21 -18
21 -21 0 -24 4 -19 28 2 15 10 34 17 42 18 22 15 50 -6 50 -10 0 -36 -27 -63
-65z"/>
<path d="M1580 3774 c0 -8 5 -12 10 -9 6 3 10 -1 10 -10 0 -9 9 -25 20 -37
l20 -22 -1 50 c0 27 -3 44 -5 37 -4 -8 -13 -9 -30 -3 -19 8 -24 6 -24 -6z"/>
<path d="M3237 3753 c-3 -5 -1 -17 3 -28 7 -19 7 -19 18 2 7 12 12 24 12 27 0
9 -28 7 -33 -1z"/>
<path d="M1650 3734 c0 -8 5 -12 10 -9 6 4 8 11 5 16 -9 14 -15 11 -15 -7z"/>
<path d="M3466 3714 c-9 -23 -2 -28 13 -10 7 8 8 17 3 20 -6 3 -13 -1 -16 -10z"/>
<path d="M3172 3668 c-11 -29 -19 -54 -17 -56 2 -2 17 9 34 24 32 28 41 50 18
41 -10 -4 -13 2 -9 19 8 41 -6 27 -26 -28z"/>
<path d="M3420 3669 c0 -5 5 -7 10 -4 6 3 10 8 10 11 0 2 -4 4 -10 4 -5 0 -10
-5 -10 -11z"/>
<path d="M2051 3623 c12 -21 58 -94 104 -163 45 -69 138 -209 205 -312 68
-104 126 -186 128 -183 9 9 -31 97 -64 141 -19 25 -48 71 -63 102 -80 159
-119 222 -170 278 -31 33 -75 86 -98 117 -48 64 -73 76 -42 20z"/>
<path d="M3270 3634 c0 -7 -3 -20 -7 -30 -4 -11 -3 -15 5 -10 6 3 14 1 17 -5
5 -7 14 -3 26 10 19 21 25 40 12 42 -5 0 -18 2 -30 3 -13 2 -23 -3 -23 -10z
m30 -18 c0 -3 -4 -8 -10 -11 -5 -3 -10 -1 -10 4 0 6 5 11 10 11 6 0 10 -2 10
-4z"/>
<path d="M3384 3629 c-3 -6 -1 -16 5 -22 9 -9 14 -8 21 3 5 8 10 18 10 23 0
11 -28 8 -36 -4z"/>
<path d="M1590 3566 c0 -9 5 -16 10 -16 6 0 10 4 10 9 0 6 -4 13 -10 16 -5 3
-10 -1 -10 -9z"/>
<path d="M3125 3572 c-26 -19 -134 -150 -128 -156 3 -3 -1 -6 -9 -6 -9 0 -18
-7 -22 -15 -3 -10 -19 -15 -46 -15 -36 0 -40 -3 -40 -24 0 -19 -11 -31 -52
-53 -29 -16 -52 -34 -50 -41 1 -7 -4 -11 -10 -10 -8 2 -12 -6 -11 -19 2 -17
-3 -23 -16 -23 -16 0 -37 -37 -27 -47 6 -6 56 20 56 29 0 4 7 8 15 8 17 0 20
-16 5 -25 -5 -3 -10 -28 -10 -54 0 -42 3 -50 23 -55 14 -4 25 -1 32 10 6 9 18
25 28 36 22 26 21 30 -3 51 -11 9 -20 24 -20 32 0 9 -4 14 -9 11 -5 -3 -8 5
-8 18 0 21 2 23 17 13 10 -6 21 -23 24 -39 3 -16 12 -28 21 -28 18 0 19 12 3
28 -9 9 -8 12 8 12 13 0 26 11 35 29 8 16 36 62 64 103 86 127 89 132 70 124
-11 -4 -15 -2 -12 6 2 7 12 12 21 10 9 -2 19 5 22 15 12 37 27 62 37 60 5 -1
12 4 14 11 5 13 -6 16 -22 4z m-75 -116 c0 -3 -4 -8 -10 -11 -5 -3 -10 -1 -10
4 0 6 5 11 10 11 6 0 10 -2 10 -4z m-46 -65 c3 -5 -1 -15 -10 -22 -8 -7 -24
-30 -35 -50 -20 -41 -34 -53 -48 -45 -5 3 6 22 25 43 19 20 32 39 29 41 -6 7
14 42 25 42 5 0 11 -4 14 -9z"/>
<path d="M1409 3569 c-7 -25 -4 -76 6 -96 l13 -25 8 24 c4 12 7 31 5 41 -1 10
4 17 13 17 19 0 20 9 5 30 -8 12 -12 12 -16 2 -4 -10 -8 -10 -19 -1 -8 6 -14
10 -15 8z m25 -65 c3 -8 2 -12 -4 -9 -6 3 -10 10 -10 16 0 14 7 11 14 -7z"/>
<path d="M1900 3551 c0 -5 5 -13 10 -16 6 -3 10 -2 10 4 0 5 -4 13 -10 16 -5
3 -10 2 -10 -4z"/>
<path d="M3250 3539 c0 -6 -7 -9 -15 -5 -8 3 -15 2 -15 -3 0 -4 -10 -19 -22
-33 -53 -58 -64 -75 -76 -116 -7 -23 -17 -40 -21 -38 -10 7 -31 -18 -56 -66
-11 -21 -23 -38 -27 -38 -5 0 -8 -6 -8 -13 0 -7 -13 -29 -30 -47 -16 -18 -31
-38 -31 -44 -2 -21 -5 -31 -13 -49 -5 -11 -3 -23 5 -34 12 -14 12 -16 -1 -11
-14 4 -52 -33 -49 -49 3 -20 -2 -34 -10 -28 -6 3 -6 17 1 36 15 44 5 45 -19 1
-26 -46 -39 -102 -24 -102 6 0 11 -4 11 -10 0 -5 -9 -10 -20 -10 -11 0 -20 -7
-20 -15 0 -10 -7 -15 -17 -13 -15 3 -18 -5 -18 -44 0 -27 3 -48 6 -48 16 0 41
29 36 43 -3 8 3 26 14 38 11 12 22 33 25 46 7 28 24 30 24 3 0 -11 -5 -20 -12
-20 -9 0 -9 -3 -1 -11 16 -16 66 -2 59 16 -2 7 -2 15 2 17 4 2 21 21 38 43 33
43 51 85 36 85 -5 0 -8 10 -8 23 1 15 -5 22 -18 22 -11 0 -21 6 -24 13 -5 16
0 15 42 -5 40 -19 66 -7 66 31 0 14 3 17 8 8 6 -9 12 -6 21 12 8 13 10 29 7
35 -4 6 -2 11 4 11 6 0 10 10 8 23 -2 17 1 22 18 20 24 -3 41 32 20 41 -6 2
-1 5 11 5 13 1 30 12 39 26 14 21 15 30 5 52 -14 29 0 53 30 53 10 0 23 9 29
21 13 24 4 41 -11 19 -7 -11 -8 -7 -3 12 4 19 1 33 -11 45 -16 16 -16 17 4 25
18 6 31 38 16 38 -3 0 -5 -5 -5 -11z m-20 -129 c0 -5 -2 -10 -4 -10 -3 0 -8 5
-11 10 -3 6 -1 10 4 10 6 0 11 -4 11 -10z m-70 -71 c0 -10 -4 -19 -10 -19 -5
0 -10 12 -10 26 0 14 4 23 10 19 6 -3 10 -15 10 -26z m-56 -46 c-5 -5 -12 -12
-15 -16 -3 -5 -9 -2 -12 7 -5 12 0 16 15 16 12 0 17 -3 12 -7z m49 0 c-7 -2
-19 -2 -25 0 -7 3 -2 5 12 5 14 0 19 -2 13 -5z"/>
<path d="M3607 3543 c-4 -3 -7 -11 -7 -17 0 -6 5 -5 12 2 6 6 9 14 7 17 -3 3
-9 2 -12 -2z"/>
<path d="M3559 3513 c-9 -25 -12 -26 -20 -10 -12 20 -29 23 -29 4 0 -17 -34
-49 -43 -41 -12 12 -57 -6 -57 -24 0 -38 13 -43 70 -29 30 8 56 19 58 26 2 6
0 10 -5 9 -8 -3 -13 5 -13 23 0 8 5 7 16 -1 13 -11 19 -9 40 11 16 16 22 31
18 42 -9 25 -23 21 -35 -10z m-109 -77 c0 -2 -7 -7 -16 -10 -8 -3 -12 -2 -9 4
6 10 25 14 25 6z"/>
<path d="M1680 3495 c0 -17 22 -45 35 -45 8 0 15 3 15 8 -1 9 -50 46 -50 37z"/>
<path d="M1455 3457 c-21 -30 -19 -37 15 -78 20 -25 37 -36 52 -35 13 1 31 -1
40 -6 22 -10 34 8 18 27 -10 11 -10 15 -1 15 7 0 9 5 6 10 -4 7 -14 3 -25 -10
l-18 -20 -14 22 c-22 34 -27 55 -18 64 5 5 -2 14 -16 21 -21 10 -26 8 -39 -10z
m45 -52 c14 -41 9 -70 -7 -40 -15 29 -25 87 -14 80 5 -3 15 -21 21 -40z"/>
<path d="M1946 3471 c-7 -11 28 -43 37 -34 4 3 7 15 7 25 0 19 -34 26 -44 9z"/>
<path d="M1361 3454 c0 -11 3 -14 6 -6 3 7 2 16 -1 19 -3 4 -6 -2 -5 -13z"/>
<path d="M1990 3409 c0 -11 30 -32 37 -25 3 3 1 6 -7 6 -9 0 -10 4 -2 13 8 10
6 13 -9 13 -10 0 -19 -3 -19 -7z"/>
<path d="M3367 3384 c-13 -13 -7 -24 14 -24 11 0 19 5 17 12 -5 14 -22 21 -31
12z"/>
<path d="M3312 3334 c-8 -8 -11 -22 -7 -31 5 -15 8 -14 27 4 11 12 17 26 14
32 -9 15 -18 13 -34 -5z"/>
<path d="M3376 3334 c-22 -21 -20 -27 4 -14 11 6 20 15 20 20 0 14 -6 12 -24
-6z"/>
<path d="M1450 3335 c0 -2 5 -16 12 -30 8 -18 17 -24 30 -19 17 5 22 -5 21
-43 -1 -7 8 -13 18 -13 11 0 19 7 19 18 0 10 3 13 8 7 4 -6 19 -16 33 -22 24
-10 26 -10 21 13 -7 36 -49 66 -73 53 -14 -7 -19 -6 -19 2 0 6 -7 9 -15 6 -8
-4 -17 -2 -20 3 -4 6 0 10 7 10 9 0 9 3 -2 10 -16 10 -40 13 -40 5z"/>
<path d="M3420 3298 c0 -11 -6 -15 -19 -11 -10 3 -22 0 -25 -5 -4 -7 6 -10 24
-10 35 1 42 8 29 28 -7 13 -9 12 -9 -2z"/>
<path d="M1766 3291 c-8 -13 3 -38 20 -45 9 -3 14 1 14 13 0 22 -26 46 -34 32z"/>
<path d="M1430 3280 c0 -5 5 -10 12 -10 6 0 22 -10 35 -22 13 -12 23 -17 23
-10 0 10 -51 52 -64 52 -3 0 -6 -4 -6 -10z"/>
<path d="M1610 3283 c0 -5 7 -16 14 -26 12 -16 14 -16 20 -1 3 9 4 20 0 25 -6
11 -34 12 -34 2z"/>
<path d="M3328 3277 c-7 -7 -28 -22 -45 -32 -18 -11 -33 -23 -33 -28 0 -5 6
-4 13 2 8 6 17 8 21 4 6 -6 66 52 66 63 0 8 -9 4 -22 -9z"/>
<path d="M1657 3235 c-4 -9 2 -19 13 -25 23 -12 25 -3 6 23 -12 15 -14 15 -19
2z"/>
<path d="M1670 3166 c0 -27 -15 -35 -23 -13 -3 6 -6 2 -6 -9 -1 -22 21 -49 31
-38 3 2 8 -2 12 -11 3 -9 2 -13 -4 -10 -12 7 -13 -5 -2 -20 4 -5 18 -16 31
-23 18 -11 26 -11 35 -1 8 9 8 10 -2 5 -20 -12 -26 22 -8 48 14 23 14 26 -7
58 -29 42 -57 49 -57 14z m50 -46 c0 -5 -2 -10 -4 -10 -3 0 -8 5 -11 10 -3 6
-1 10 4 10 6 0 11 -4 11 -10z"/>
<path d="M3228 3159 c-7 -21 -15 -28 -25 -24 -21 7 -43 -13 -43 -39 0 -14 -3
-17 -8 -8 -6 9 -12 4 -21 -15 -23 -51 -36 -71 -80 -134 -24 -35 -44 -71 -45
-81 -1 -10 -5 -19 -11 -19 -5 -1 -25 -25 -44 -53 -19 -28 -48 -67 -65 -86 -47
-53 -95 -132 -102 -168 -4 -18 -11 -35 -15 -38 -15 -9 -10 -31 8 -38 9 -4 23
0 32 9 8 8 11 15 5 15 -6 0 -10 10 -8 23 1 12 3 30 3 39 1 10 30 49 65 88 61
66 119 145 196 267 20 31 45 60 58 64 13 5 32 30 47 61 13 29 29 60 34 68 26
41 50 100 40 100 -5 0 -15 -14 -21 -31z"/>
<path d="M1759 3078 c0 -7 -2 -26 -4 -43 -3 -19 -1 -25 4 -16 5 8 16 11 30 6
l21 -6 -21 35 c-22 39 -29 43 -30 24z"/>
<path d="M2256 3083 c-10 -11 -7 -73 5 -73 6 0 9 -6 6 -12 -5 -15 23 -68 36
-68 5 0 6 17 3 38 -4 20 -7 47 -7 60 -1 12 -5 22 -10 22 -5 0 -9 6 -9 14 0 17
-14 28 -24 19z"/>
<path d="M1730 3069 c0 -5 5 -7 10 -4 6 3 10 8 10 11 0 2 -4 4 -10 4 -5 0 -10
-5 -10 -11z"/>
<path d="M1610 3040 c0 -5 5 -10 11 -10 5 0 7 5 4 10 -3 6 -8 10 -11 10 -2 0
-4 -4 -4 -10z"/>
<path d="M1685 3020 c-3 -5 -1 -10 4 -10 6 0 11 5 11 10 0 6 -2 10 -4 10 -3 0
-8 -4 -11 -10z"/>
<path d="M1710 3005 c-7 -9 -8 -15 -2 -15 5 0 12 7 16 15 3 8 4 15 2 15 -2 0
-9 -7 -16 -15z"/>
<path d="M2726 3005 c-3 -8 -1 -15 3 -15 5 0 11 7 15 15 3 8 1 15 -3 15 -5 0
-11 -7 -15 -15z"/>
<path d="M1810 2986 c0 -2 7 -7 16 -10 8 -3 12 -2 9 4 -6 10 -25 14 -25 6z"/>
<path d="M1754 2955 c3 -9 -2 -11 -16 -7 -14 3 -19 1 -14 -6 4 -7 14 -12 22
-12 8 0 14 -4 14 -10 0 -5 7 -10 16 -10 8 0 12 -4 9 -10 -4 -6 5 -10 20 -10
14 0 28 -7 31 -15 7 -17 34 -21 34 -5 0 6 -7 10 -15 10 -8 0 -15 5 -15 10 0 6
9 10 20 10 11 0 20 5 20 11 0 6 -9 13 -20 16 -11 3 -20 9 -20 14 0 5 -9 9 -20
9 -11 0 -20 3 -20 8 0 4 -12 8 -26 8 -17 1 -24 -2 -20 -11z m56 -25 c0 -5 -7
-10 -16 -10 -8 0 -12 5 -9 10 3 6 10 10 16 10 5 0 9 -4 9 -10z"/>
<path d="M2704 2955 c-4 -10 -15 -12 -35 -8 -33 6 -37 -2 -13 -28 15 -17 15
-21 -1 -46 -16 -24 -16 -26 -2 -14 9 7 17 10 17 7 0 -10 69 64 81 86 8 15 5
18 -16 18 -14 0 -28 -7 -31 -15z"/>
<path d="M2059 2926 c0 0 -2 -20 -5 -44 -3 -31 0 -48 12 -60 15 -15 16 -14 9
7 -6 21 -4 20 21 -8 22 -23 35 -29 51 -25 19 5 22 12 19 46 -2 22 -7 43 -12
48 -8 7 -93 40 -95 36z"/>
<path d="M2018 2913 c6 -2 12 -11 12 -19 0 -9 5 -12 10 -9 13 8 -6 35 -24 34
-7 0 -6 -2 2 -6z"/>
<path d="M1701 2896 c-8 -10 -9 -16 -1 -21 5 -3 10 -5 11 -3 4 18 7 38 4 38
-1 0 -8 -6 -14 -14z"/>
<path d="M2260 2874 c0 -16 5 -36 10 -44 6 -10 7 -2 3 25 -7 49 -13 58 -13 19z"/>
<path d="M2333 2893 c-16 -6 -17 -39 -2 -48 13 -9 15 -7 23 28 6 27 3 30 -21
20z"/>
<path d="M1876 2847 c-3 -13 0 -17 9 -13 9 3 12 0 8 -10 -3 -7 -9 -14 -14 -14
-6 0 -4 -10 3 -22 7 -13 13 -27 13 -33 0 -5 8 -9 18 -7 25 4 86 -46 94 -77 9
-40 34 -85 54 -99 13 -9 19 -26 19 -54 0 -37 1 -39 18 -27 15 13 16 12 4 -3
-8 -9 -11 -21 -8 -27 4 -5 -1 -31 -10 -57 -13 -39 -14 -59 -6 -109 6 -33 14
-69 18 -79 5 -14 4 -17 -4 -12 -7 4 -12 16 -12 26 0 28 -15 32 -29 7 -7 -12
-32 -35 -56 -52 -78 -52 -85 -105 -25 -185 51 -68 93 -95 130 -82 43 16 109
-5 67 -21 -16 -6 -13 -73 6 -118 11 -28 12 -41 2 -69 -7 -19 -15 -59 -19 -89
-6 -49 -5 -53 8 -41 9 7 16 23 16 36 0 13 7 27 15 32 13 7 17 37 21 155 5 141
2 161 -23 136 -8 -8 -10 -1 -6 29 8 56 -3 92 -26 92 -29 0 -30 20 -4 46 17 18
22 30 17 49 -4 16 -2 25 6 25 7 0 10 7 6 15 -3 8 0 15 7 15 7 1 1 7 -13 15
-14 8 -19 14 -12 15 20 0 14 17 -10 23 -18 5 -19 8 -8 21 7 9 9 16 4 16 -5 0
-1 5 9 11 9 6 14 15 10 21 -12 21 -10 67 4 72 7 3 13 13 12 23 0 11 -3 13 -6
5 -9 -22 -23 -2 -23 32 0 22 -12 51 -34 83 -18 27 -48 76 -67 108 -46 84 -79
125 -108 138 -21 8 -23 11 -9 14 16 4 17 7 3 34 -18 33 -60 38 -69 6z m262
-622 c-3 -3 -9 2 -12 12 -6 14 -5 15 5 6 7 -7 10 -15 7 -18z m-51 -137 c-3 -8
-6 -5 -6 6 -1 11 2 17 5 13 3 -3 4 -12 1 -19z"/>
<path d="M2537 2863 c-3 -5 -2 -15 2 -22 7 -10 10 -10 16 -1 4 6 3 16 -3 22
-5 5 -12 6 -15 1z"/>
<path d="M2570 2860 c0 -5 5 -10 11 -10 5 0 7 5 4 10 -3 6 -8 10 -11 10 -2 0
-4 -4 -4 -10z"/>
<path d="M2596 2833 c-3 -4 -6 -12 -6 -20 0 -18 44 -10 48 8 3 15 -30 23 -42
12z"/>
<path d="M2850 2826 c0 -17 14 -29 23 -20 8 8 -3 34 -14 34 -5 0 -9 -6 -9 -14z"/>
<path d="M2729 2828 c-6 -21 -5 -38 2 -38 5 0 9 2 9 4 0 2 3 11 6 20 3 9 1 16
-5 16 -6 0 -11 -1 -12 -2z"/>
<path d="M2247 2793 c-13 -13 -7 -53 8 -53 10 0 15 10 15 30 0 29 -9 38 -23
23z"/>
<path d="M2810 2760 c-27 -33 -51 -38 -70 -15 -15 18 -30 11 -30 -16 0 -10 -5
-18 -12 -16 -7 1 -12 -4 -13 -12 0 -8 -7 -16 -15 -18 -12 -4 -12 -3 -1 5 11 8
11 10 0 14 -11 4 -12 9 -1 27 16 27 15 38 -3 45 -12 4 -14 0 -10 -17 4 -16 -2
-31 -19 -50 -45 -48 -47 -59 -20 -94 13 -18 28 -42 34 -55 9 -23 9 -23 9 3 1
15 -6 32 -14 39 -8 7 -15 17 -15 22 0 6 6 6 14 -1 11 -10 17 -8 26 6 10 16 10
16 5 -3 -4 -15 2 -24 21 -34 25 -14 28 -13 57 20 26 29 28 35 14 38 -18 4 -24
22 -7 22 6 0 16 11 22 25 7 16 14 21 18 14 11 -17 48 27 48 57 0 31 -8 30 -38
-6z"/>
<path d="M2307 2769 c-20 -12 -23 -29 -3 -29 17 0 40 26 29 33 -5 3 -16 1 -26
-4z"/>
<path d="M2399 2743 c-13 -21 -27 -43 -31 -49 -5 -7 1 -11 15 -10 14 1 22 8
23 21 1 11 2 24 3 29 1 5 8 3 16 -4 8 -7 12 -17 8 -24 -3 -6 3 -3 13 8 14 13
15 20 6 23 -6 3 -10 8 -7 13 3 4 -1 13 -9 19 -11 9 -19 4 -37 -26z"/>
<path d="M2500 2746 c0 -8 6 -17 13 -19 10 -4 10 -6 0 -6 -7 -1 -13 -8 -13
-17 0 -8 5 -12 10 -9 14 9 13 -8 -2 -23 -18 -18 6 -80 50 -132 37 -42 41 -44
66 -32 25 11 26 13 12 39 -20 38 -52 64 -71 57 -11 -5 -15 2 -16 27 -1 19 -1
38 0 42 4 23 -21 87 -34 87 -8 0 -15 -6 -15 -14z"/>
<path d="M2560 2712 c0 -11 6 -25 14 -31 11 -9 12 -6 8 14 -5 31 -22 43 -22
17z"/>
<path d="M1875 2684 c-16 -7 -28 -14 -25 -14 28 -7 45 -7 62 -1 16 6 17 9 6
18 -9 7 -22 6 -43 -3z"/>
<path d="M2160 2695 c0 -15 16 -36 26 -34 5 1 17 -1 27 -6 10 -4 21 -5 24 -1
11 11 -14 28 -33 24 -11 -2 -24 3 -31 12 -7 8 -12 11 -13 5z"/>
<path d="M2376 2651 c-3 -5 -3 -17 1 -27 5 -13 3 -15 -8 -9 -11 6 -12 5 -1 -6
17 -18 15 -32 -3 -25 -22 8 -18 -7 6 -22 15 -10 18 -16 10 -26 -16 -19 14 -45
31 -28 17 17 28 15 28 -4 0 -13 -8 -15 -36 -12 -32 4 -35 2 -31 -16 3 -12 8
-31 10 -43 4 -16 2 -20 -9 -16 -11 4 -14 -5 -14 -37 0 -34 -3 -40 -13 -31 -8
6 -17 8 -20 4 -14 -13 -6 -21 22 -25 48 -7 78 28 58 67 -9 17 -8 18 5 7 13
-10 19 -10 31 3 21 21 37 19 37 -4 0 -23 12 -32 46 -36 17 -2 24 3 24 15 0 24
25 71 33 63 4 -3 7 -1 7 5 0 7 -6 12 -14 12 -8 0 -16 7 -20 15 -3 8 -12 15
-21 15 -17 0 -20 -16 -5 -25 15 -9 12 -25 -4 -25 -8 0 -17 7 -20 16 -3 8 -11
12 -18 8 -8 -5 -5 -13 10 -25 22 -17 29 -39 14 -39 -19 0 -42 39 -42 71 0 25
3 30 10 19 7 -11 9 -7 7 17 -1 17 -5 29 -9 27 -9 -6 -22 62 -15 80 3 8 0 19
-6 24 -19 15 -74 24 -81 13z"/>
<path d="M2240 2630 c0 -5 4 -10 9 -10 6 0 13 5 16 10 3 6 -1 10 -9 10 -9 0
-16 -4 -16 -10z"/>
<path d="M2480 2593 c0 -18 5 -33 11 -33 5 0 8 4 5 9 -4 5 -1 11 4 13 7 2 5
11 -4 23 -15 19 -15 19 -16 -12z"/>
<path d="M2268 2558 c19 -20 24 -21 32 -8 16 25 12 30 -22 30 l-32 0 22 -22z"/>
<path d="M2681 2544 c0 -11 3 -14 6 -6 3 7 2 16 -1 19 -3 4 -6 -2 -5 -13z"/>
<path d="M2290 2488 c0 -9 5 -29 11 -45 11 -27 11 -28 21 -6 8 17 6 26 -11 44
-17 18 -21 19 -21 7z"/>
<path d="M2740 2440 c-16 -30 -12 -47 19 -82 l30 -33 -16 49 c-12 37 -14 51
-5 54 17 5 15 19 -3 26 -8 3 -19 -3 -25 -14z"/>
<path d="M2826 2446 c6 -17 34 -30 34 -16 0 5 -9 14 -20 20 -16 8 -18 8 -14
-4z"/>
<path d="M2604 2395 c-7 -18 12 -45 32 -45 17 0 18 32 2 48 -16 16 -27 15 -34
-3z"/>
<path d="M2290 2381 c0 -6 4 -13 10 -16 6 -3 7 1 4 9 -7 18 -14 21 -14 7z"/>
<path d="M2740 2296 c0 -34 5 -56 13 -59 9 -4 8 -8 -3 -16 -13 -9 -15 -57 -13
-338 0 -180 4 -341 8 -358 3 -16 10 -59 15 -95 13 -100 41 -177 61 -165 5 4 9
-3 9 -14 0 -11 4 -22 9 -26 14 -8 41 24 41 48 0 14 -3 18 -8 10 -11 -18 -31
-1 -29 25 2 29 47 32 47 3 0 -32 11 -50 26 -44 8 3 14 1 14 -5 0 -20 40 1 41
22 1 19 2 18 8 -4 l7 -25 11 32 c9 26 8 40 -6 77 -23 61 -36 74 -50 48 -23
-43 -101 -34 -101 11 0 12 14 49 30 82 16 33 30 67 30 76 0 27 -39 69 -63 66
-23 -2 -29 11 -45 101 -13 78 4 361 23 382 8 9 15 21 15 27 0 6 7 16 15 23 20
17 19 30 -3 30 -10 0 -29 11 -41 24 -24 25 -21 46 5 46 8 0 14 5 14 10 0 6 -7
10 -15 10 -8 0 -22 11 -31 25 -25 38 -34 30 -34 -29z m88 -693 c2 -15 8 -19
23 -16 14 4 19 0 19 -16 0 -11 -4 -21 -9 -21 -5 0 -11 -9 -14 -20 -6 -23 -35
-27 -43 -5 -6 15 -8 54 -5 88 1 25 25 16 29 -10z m-8 -184 c0 -5 -4 -9 -10 -9
-5 0 -10 7 -10 16 0 8 5 12 10 9 6 -3 10 -10 10 -16z"/>
<path d="M2566 2316 c7 -17 44 -22 44 -6 0 6 -4 10 -9 10 -5 0 -17 3 -25 6
-12 5 -15 2 -10 -10z"/>
<path d="M2865 2310 c-4 -6 -11 -8 -16 -5 -5 4 -9 0 -9 -8 0 -13 6 -13 35 -5
19 6 32 15 29 20 -7 11 -31 10 -39 -2z"/>
<path d="M2440 2281 c0 -6 5 -13 10 -16 6 -3 10 1 10 9 0 9 -4 16 -10 16 -5 0
-10 -4 -10 -9z"/>
<path d="M2572 2244 c-10 -11 -11 -18 -3 -28 7 -9 8 -29 2 -59 -6 -33 -5 -47
3 -47 19 -1 69 -47 62 -58 -4 -6 -13 -9 -20 -6 -19 7 -28 -23 -15 -48 8 -15 8
-22 -1 -28 -17 -10 -4 -47 19 -53 39 -10 42 4 42 162 1 94 -4 157 -10 165 -15
18 -63 17 -79 0z m71 -271 c5 -23 3 -31 -8 -29 -23 3 -29 14 -16 29 6 8 8 23
5 33 -5 13 -4 16 3 9 6 -5 13 -24 16 -42z"/>
<path d="M2437 2203 c-4 -3 -7 -13 -7 -21 0 -18 13 -7 16 13 2 17 1 18 -9 8z"/>
<path d="M2460 2180 c0 -23 22 -27 39 -7 13 16 5 27 -21 27 -11 0 -18 -7 -18
-20z"/>
<path d="M2365 2136 c-19 -14 -8 -56 14 -56 14 0 61 49 61 63 0 9 -62 3 -75
-7z"/>
<path d="M2519 2134 c-11 -14 -10 -16 9 -12 13 1 23 7 23 13 1 17 -17 16 -32
-1z"/>
<path d="M2394 2057 c-12 -7 -19 -18 -16 -26 3 -9 -1 -11 -17 -6 -15 5 -21 2
-21 -9 0 -9 9 -16 20 -16 11 0 20 5 20 11 0 6 6 9 13 7 6 -3 12 -11 12 -19 0
-8 4 -17 10 -21 5 -4 -2 -11 -15 -17 -18 -6 -31 -5 -47 5 -12 8 -27 14 -33 14
-13 0 -13 -61 0 -96 9 -24 9 -25 -5 -14 -13 11 -15 8 -15 -22 0 -20 8 -43 18
-53 15 -16 17 -29 11 -70 -4 -27 -10 -62 -14 -77 -6 -22 -4 -28 9 -28 17 0 20
13 17 73 -2 23 2 37 9 37 8 0 10 -9 6 -25 -5 -18 -2 -27 9 -32 9 -3 14 -12 11
-19 -7 -19 18 -18 34 1 10 12 9 20 -4 40 -9 13 -16 28 -16 32 0 4 4 1 10 -7
14 -23 24 13 11 39 -7 13 -8 22 -1 26 5 3 10 1 10 -4 0 -19 17 -12 28 13 6 14
7 27 2 32 -5 5 -10 24 -12 42 -1 18 -10 40 -19 48 -17 16 -15 49 2 38 5 -3 9
22 9 55 0 64 -2 68 -36 48z m3 -399 c-3 -7 -5 -2 -5 12 0 14 2 19 5 13 2 -7 2
-19 0 -25z"/>
<path d="M2451 2011 c-9 -17 -10 -26 -2 -34 18 -18 36 8 24 35 l-10 23 -12
-24z"/>
<path d="M2510 2021 c0 -3 4 -12 9 -20 7 -12 13 -12 24 -3 7 7 17 9 20 5 4 -3
7 0 7 9 0 10 -10 15 -30 15 -16 0 -30 -3 -30 -6z"/>
<path d="M2200 1990 c0 -5 5 -10 10 -10 6 0 10 5 10 10 0 6 -4 10 -10 10 -5 0
-10 -4 -10 -10z"/>
<path d="M2480 1958 c0 -19 2 -20 10 -8 13 19 13 30 0 30 -5 0 -10 -10 -10
-22z"/>
<path d="M2480 1909 c-15 -27 -10 -31 13 -9 11 11 14 20 8 24 -5 4 -15 -3 -21
-15z"/>
<path d="M2534 1889 c-3 -6 0 -15 7 -20 11 -7 11 -9 1 -9 -9 0 -10 -5 -2 -19
5 -11 7 -27 4 -35 -4 -9 -1 -16 6 -16 6 0 14 8 17 19 3 13 11 17 24 14 15 -4
19 0 19 20 0 39 -58 74 -76 46z"/>
<path d="M2620 1838 c0 -18 18 -34 28 -24 3 4 -2 14 -11 23 -16 16 -17 16 -17
1z"/>
<path d="M2487 1817 c-11 -29 -9 -43 4 -30 6 6 9 19 7 29 -3 18 -4 18 -11 1z"/>
<path d="M2521 1814 c0 -11 3 -14 6 -6 3 7 2 16 -1 19 -3 4 -6 -2 -5 -13z"/>
<path d="M2502 1778 c-7 -7 -12 -23 -12 -37 1 -24 2 -24 16 8 16 37 14 47 -4
29z"/>
<path d="M2626 1781 c-8 -13 -66 -19 -73 -8 -8 14 -34 -51 -38 -99 -3 -22 0
-53 4 -70 8 -26 9 -23 11 26 l2 55 14 -32 c7 -17 18 -34 23 -37 14 -9 -4 48
-23 76 -24 33 -19 45 5 14 11 -14 24 -24 29 -21 9 6 19 -28 21 -70 0 -20 3
-25 7 -14 4 9 18 15 33 15 l26 -2 -4 76 c-3 41 -6 81 -8 88 -5 14 -21 16 -29
3z"/>
<path d="M2476 1665 c-3 -8 -13 -15 -23 -15 -14 0 -18 -8 -16 -37 1 -21 2 -40
2 -42 1 -2 7 2 15 8 17 15 29 0 20 -24 -6 -15 -4 -16 16 -5 19 10 21 17 15 48
-4 21 -8 47 -9 60 -1 25 -11 29 -20 7z"/>
<path d="M2365 1615 c-17 -48 -38 -91 -50 -101 -9 -6 -10 -15 -5 -25 8 -12 12
-11 25 6 16 20 16 19 11 -5 -3 -14 -6 -41 -7 -60 -1 -24 -3 -28 -6 -12 -5 26
-32 30 -34 5 -1 -10 -1 -22 0 -27 1 -4 -2 -22 -8 -40 -5 -17 -12 -43 -15 -58
-4 -16 -13 -28 -20 -28 -14 0 -26 -21 -26 -47 0 -11 7 -13 29 -8 23 5 30 2 33
-11 4 -23 98 -31 98 -9 0 8 10 21 22 29 20 14 23 13 44 -9 12 -13 24 -22 27
-19 4 4 3 -15 -3 -76 -1 -8 -5 -4 -10 10 -7 25 -7 24 -16 -9 -7 -24 -17 -35
-32 -38 -14 -2 -22 2 -22 12 0 8 -5 15 -11 15 -6 0 -8 8 -4 19 5 16 2 18 -14
14 -13 -3 -18 -10 -13 -21 5 -15 3 -15 -18 1 -14 10 -33 20 -42 24 -10 3 -18
13 -18 22 0 13 -12 16 -69 16 -66 0 -72 -2 -106 -35 -27 -26 -35 -30 -30 -15
6 18 5 18 -7 3 -7 -9 -18 -25 -25 -35 -11 -16 -12 -15 -12 10 -1 15 -4 27 -7
27 -3 0 -24 -13 -47 -29 -23 -15 -48 -26 -54 -24 -7 3 -13 0 -13 -7 0 -6 5 -8
11 -4 7 4 9 0 5 -14 -5 -15 -1 -21 16 -26 13 -3 153 -5 311 -3 l289 2 19 24
c20 25 26 76 9 86 -15 9 -12 25 6 25 8 0 20 14 26 30 5 17 19 35 30 41 18 10
20 18 15 70 -6 64 5 69 29 15 l14 -31 -3 45 c-1 35 -6 44 -18 42 -9 -1 -19 4
-22 13 -4 8 -13 12 -22 9 -12 -5 -14 -14 -9 -37 5 -22 3 -28 -6 -22 -10 6 -12
-2 -7 -33 3 -23 1 -42 -4 -42 -5 0 -9 7 -9 15 0 8 -5 15 -11 15 -7 0 -9 10 -7
25 3 14 1 25 -4 25 -6 0 -7 7 -4 17 4 10 -2 25 -15 39 -12 12 -19 30 -16 41 4
15 5 15 6 -3 0 -12 8 -25 17 -28 8 -3 13 -2 10 3 -3 5 1 14 9 21 11 9 12 17 4
32 -10 18 -8 19 11 13 15 -5 26 -2 31 6 6 9 9 0 9 -26 1 -37 2 -38 11 -15 6
14 8 38 5 53 -4 17 -2 26 4 22 13 -8 24 20 15 35 -5 8 -11 8 -20 0 -8 -7 -18
-9 -24 -6 -5 3 -11 -1 -15 -9 -3 -8 -12 -12 -19 -9 -10 3 -19 -6 -27 -28 -11
-32 -12 -32 -21 -10 -8 21 -11 22 -24 9 -8 -9 -20 -17 -27 -20 -10 -3 -11 -9
0 -26 15 -25 15 -31 1 -31 -5 0 -7 5 -4 10 3 6 1 10 -6 10 -9 0 -10 -16 -5
-57 4 -32 7 -65 8 -74 0 -8 13 -19 31 -25 17 -5 32 -15 35 -21 3 -10 -5 -9
-30 1 -33 14 -33 14 -45 -17 l-11 -32 -1 46 c-1 28 -7 51 -16 59 -10 8 -15 28
-14 59 l2 46 6 -40 c5 -31 8 -36 14 -21 4 10 2 56 -5 103 -10 71 -17 90 -44
121 -30 34 -33 35 -39 17z m62 -97 c-3 -7 -5 -2 -5 12 0 14 2 19 5 13 2 -7 2
-19 0 -25z m106 -415 c5 -26 4 -26 -9 -9 -7 10 -11 23 -8 27 8 14 11 11 17
-18z m-546 -18 c-15 -16 -22 -11 -13 10 3 9 10 13 16 10 6 -4 5 -11 -3 -20z"/>
<path d="M2195 1610 c-3 -5 -1 -10 4 -10 6 0 11 5 11 10 0 6 -2 10 -4 10 -3 0
-8 -4 -11 -10z"/>
<path d="M2321 1582 c-6 -12 -11 -31 -11 -44 1 -17 5 -12 15 17 15 43 13 59
-4 27z"/>
<path d="M2548 1558 c10 -13 10 -17 0 -21 -7 -2 -9 -8 -5 -13 9 -9 28 16 24
30 -2 6 -10 12 -18 15 -12 3 -12 2 -1 -11z"/>
<path d="M2183 1552 c-14 -2 -20 -8 -16 -18 3 -7 -2 -16 -10 -20 -8 -3 -18
-17 -21 -30 -4 -14 -17 -29 -29 -34 -21 -8 -20 -9 6 -9 16 -1 26 3 22 9 -3 6
4 10 18 10 33 0 65 38 58 70 -5 19 -11 24 -28 22z"/>
<path d="M2186 1422 c-3 -5 -29 -7 -58 -5 -38 3 -59 0 -73 -11 -20 -15 -20
-15 4 -16 17 0 22 -4 17 -16 -3 -8 -2 -12 4 -9 6 3 14 -5 20 -20 8 -22 13 -24
30 -15 11 6 20 17 20 25 0 8 5 15 10 15 13 0 13 -13 -2 -45 -10 -21 -9 -28 2
-35 19 -12 33 -1 27 21 -3 11 -2 17 3 14 10 -6 20 30 20 73 0 30 -12 42 -24
24z"/>
<path d="M2093 1230 c-6 -16 -27 -39 -48 -51 -26 -15 -33 -24 -24 -30 13 -7
54 16 77 43 15 18 26 68 15 68 -5 0 -14 -13 -20 -30z"/>
<path d="M3074 1234 c-4 -16 -16 -23 -46 -27 -38 -5 -57 -19 -58 -41 0 -4 16
-6 35 -4 19 2 35 0 35 -4 0 -4 19 -8 41 -8 l41 0 -7 38 c-3 20 -13 44 -21 52
-13 13 -15 12 -20 -6z"/>
<path d="M2056 1226 c10 -8 21 -12 24 -10 5 6 -21 24 -34 24 -6 0 -1 -6 10
-14z"/>
<path d="M2636 1191 c-16 -30 -16 -31 3 -31 22 0 38 37 23 52 -7 7 -16 0 -26
-21z"/>
<path d="M2023 1198 c-13 -6 -23 -14 -23 -19 0 -11 38 1 51 17 13 16 3 17 -28
2z"/>
<path d="M2750 1155 c0 -25 -4 -35 -12 -32 -7 2 -12 14 -10 25 4 30 -25 40
-43 16 -7 -10 -11 -23 -8 -27 5 -8 -2 -28 -28 -79 -12 -23 7 -28 113 -28 74 0
93 3 105 18 14 16 14 16 9 0 -4 -13 0 -18 15 -18 17 0 20 4 15 23 -3 12 -6 27
-6 34 0 7 -7 10 -15 7 -18 -7 -20 12 -2 20 6 3 -1 4 -18 3 -16 -1 -32 -8 -35
-15 -3 -7 -16 8 -30 35 -32 60 -50 66 -50 18z m30 -90 c-7 -9 -15 -13 -17 -11
-7 7 7 26 19 26 6 0 6 -6 -2 -15z"/>
<path d="M2940 1181 c0 -6 4 -13 10 -16 6 -3 7 1 4 9 -7 18 -14 21 -14 7z"/>
<path d="M1797 1159 c7 -9 26 -14 43 -13 38 3 53 14 19 14 -13 0 -35 3 -49 7
-21 5 -23 4 -13 -8z"/>
<path d="M2592 1091 c-15 -44 -15 -51 2 -51 19 0 26 23 17 57 l-7 28 -12 -34z"/>
<path d="M2970 1100 c0 -7 -8 -9 -19 -5 -14 4 -20 -1 -24 -22 -3 -15 -2 -31 1
-34 4 -4 45 -9 91 -13 46 -4 88 -9 92 -12 5 -3 12 3 16 13 4 10 11 21 16 24 6
4 7 15 3 24 -5 13 -15 16 -46 13 -22 -2 -40 0 -40 4 0 4 -8 7 -17 7 -10 0 -30
3 -45 7 -19 4 -28 2 -28 -6z"/>
<path d="M3123 993 c9 -2 23 -2 30 0 6 3 -1 5 -18 5 -16 0 -22 -2 -12 -5z"/>
</g>
</svg>
