<?xml version="1.0" standalone="no"?>
<!DOCTYPE svg PUBLIC "-//W3C//DTD SVG 20010904//EN"
 "http://www.w3.org/TR/2001/REC-SVG-20010904/DTD/svg10.dtd">
<svg version="1.0" xmlns="http://www.w3.org/2000/svg"
 width="900.000000pt" height="500.000000pt" viewBox="0 0 900.000000 500.000000"
 preserveAspectRatio="xMidYMid meet">

<g transform="translate(0.000000,500.000000) scale(0.100000,-0.100000)"
fill="#000000" stroke="none">
<path d="M3845 4758 c-35 -95 -407 -1100 -495 -1338 -37 -102 -121 -327 -185
-500 -64 -173 -186 -502 -270 -730 -466 -1263 -727 -1968 -735 -1988 -6 -13
-10 -27 -10 -32 0 -6 193 -10 508 -10 l507 0 233 698 c129 383 413 1233 632
1887 219 655 401 1197 405 1207 6 16 86 30 104 18 8 -5 43 -106 316 -920 279
-828 848 -2520 912 -2710 l60 -175 526 -3 527 -2 -15 37 c-8 21 -53 146 -101
278 -47 132 -155 434 -241 670 -85 237 -204 567 -265 735 -60 168 -149 415
-198 550 -49 135 -209 578 -355 985 -147 407 -313 868 -370 1025 -56 157 -111
309 -121 338 l-19 52 -661 0 -662 0 -27 -72z"/>
<path d="M4347 2086 c-118 -49 -182 -110 -234 -222 -25 -53 -28 -70 -28 -164
0 -100 2 -109 34 -175 44 -89 113 -157 199 -198 63 -30 74 -32 177 -32 104 0
114 2 176 32 120 60 206 176 230 312 30 168 -69 354 -230 433 -58 29 -76 33
-165 36 -89 2 -108 0 -159 -22z"/>
</g>
</svg>
